<svg version="1.1" id="Layer_1" xmlns="http://www.w3.org/2000/svg" xmlns:xlink="http://www.w3.org/1999/xlink" x="0px" y="0px"
	 width="100%" viewBox="30 240 940 230" enable-background="new 0 0 1024 720" xml:space="preserve">
<path fill="#e0ffff" opacity="1.000000" stroke="none" 
	d="
M344.037231,317.531403 
	C340.352661,298.207062 343.456177,281.036743 357.209991,266.668060 
	C371.975464,251.242416 392.776459,249.963867 410.450531,255.544586 
	C411.724731,255.946930 413.558624,256.516632 413.026489,258.030518 
	C411.345306,262.813629 410.251038,267.998322 405.900665,271.361481 
	C405.596191,271.596863 404.951538,271.392242 404.484924,271.392242 
	C401.589478,260.759308 391.778290,256.266724 378.653412,259.871155 
	C364.436615,263.775421 358.446686,274.830078 355.600189,288.004639 
	C353.614319,297.195953 353.522064,306.484528 356.891998,315.552643 
	C363.552307,333.474884 384.443634,332.922516 395.381195,322.974060 
	C398.292908,320.325684 397.637787,316.473328 398.018005,313.084351 
	C399.606842,298.923553 402.251495,301.084045 387.643921,300.976227 
	C383.189606,300.943329 378.736237,301.209290 373.799438,302.315796 
	C374.575043,297.514038 376.868378,294.731812 380.866577,293.842255 
	C389.910095,291.830109 399.122375,292.938873 408.265594,292.823059 
	C410.524384,292.794434 411.028870,294.211639 410.512177,296.223114 
	C406.769653,310.793182 407.049622,325.932312 404.224060,340.638336 
	C400.728943,358.829071 386.817749,370.222778 368.950378,369.278015 
	C363.831116,369.007294 359.244293,367.186493 355.145294,364.073334 
	C351.897980,361.607086 351.883179,359.385620 355.345612,357.128784 
	C357.128357,355.966766 358.523041,354.197388 360.700867,353.659454 
	C362.675903,354.359283 363.194824,356.327454 364.398193,357.645386 
	C368.793213,362.458618 374.229370,364.440460 380.600830,363.403381 
	C387.093048,362.346619 390.667450,358.146271 392.344666,351.937134 
	C394.214355,345.015503 394.937073,337.952698 395.977264,329.899353 
	C383.513367,336.658875 371.404480,341.808380 358.093201,335.453064 
	C350.756500,331.950256 346.738251,325.414948 344.037231,317.531403 
z"/>
<path fill="#e0ffff" opacity="1.000000" stroke="none" 
	d="
M108.169373,318.885040 
	C107.320801,325.779053 106.173019,332.153534 104.145103,338.341187 
	C99.046051,353.899628 85.335342,363.280304 69.043671,362.360626 
	C61.485184,361.933960 56.475243,357.677765 52.776295,351.478729 
	C51.942776,350.081879 51.567684,348.649048 53.109623,347.487518 
	C55.718636,345.522064 57.922108,342.909332 61.509117,341.973602 
	C62.116245,343.280487 62.710167,344.435486 63.199825,345.633118 
	C66.292313,353.196808 70.130608,355.819061 77.893059,356.017609 
	C85.228493,356.205200 89.764252,352.536224 92.401817,346.025116 
	C96.145943,336.782318 96.440231,326.894775 97.633316,317.196503 
	C99.640091,300.884003 101.269287,284.524445 103.349419,268.221954 
	C103.875259,264.100830 102.752167,262.616913 98.707275,263.001038 
	C95.725220,263.284210 92.748245,263.441833 89.837936,264.283386 
	C80.835136,266.886658 76.564125,274.034180 78.686478,283.074005 
	C80.486794,290.742188 78.782425,294.099579 71.149002,297.921844 
	C66.831276,291.337311 68.865692,278.615570 74.902275,270.010071 
	C83.659935,257.525513 106.121559,252.664078 116.055122,255.845016 
	C112.303268,276.512878 110.512497,297.504547 108.169373,318.885040 
z"/>
<path fill="#e0ffff" opacity="1.000000" stroke="none" 
	d="
M701.154846,387.443085 
	C702.137939,388.350708 702.867493,389.030640 703.830261,389.927917 
	C705.392578,388.670593 703.731079,386.077209 705.627380,385.205109 
	C707.194702,384.484283 708.916931,384.565094 710.510864,385.104553 
	C712.289062,385.706268 712.255127,387.379669 712.254700,388.873932 
	C712.250427,404.358795 712.534241,419.853088 712.070801,435.324768 
	C711.821106,443.660919 707.433777,450.004089 699.090393,452.414276 
	C690.501404,454.895386 682.190430,454.258575 675.403748,447.576202 
	C673.301575,445.506378 671.496521,442.996124 672.086609,439.409027 
	C675.173706,438.515869 677.859192,437.765411 680.299255,441.219940 
	C683.795349,446.169617 689.617126,447.724152 695.379700,445.895691 
	C701.074829,444.088623 703.633057,440.563293 703.980225,433.915985 
	C704.075256,432.096558 703.994690,430.267944 703.994690,427.843170 
	C698.176453,433.140686 691.914429,435.758759 684.388611,433.330231 
	C684.231201,433.279419 684.059021,433.275238 683.900208,433.227722 
	C673.469849,430.106720 667.427856,417.060913 669.828003,402.847046 
	C671.760864,391.400879 680.420654,383.480011 690.708496,383.680145 
	C694.511353,383.754181 697.876831,384.961212 701.154846,387.443085 
M679.394348,418.948212 
	C682.018250,424.448639 686.138550,427.572205 692.457153,426.731018 
	C698.551880,425.919617 701.639648,421.627411 703.137390,416.239594 
	C704.575378,411.066803 704.597778,405.695648 702.904419,400.528839 
	C700.803467,394.118622 696.798645,391.052643 691.019043,391.024689 
	C685.041809,390.995728 680.830994,394.281433 678.717529,400.725525 
	C676.791687,406.597443 676.673706,412.450775 679.394348,418.948212 
z"/>
<path fill="#e0ffff" opacity="1.000000" stroke="none" 
	d="
M471.813324,279.739288 
	C474.231201,279.066956 476.102203,277.716370 478.924255,278.420685 
	C476.470398,294.808044 473.247833,311.119812 472.186127,328.124390 
	C479.128937,327.406067 479.792786,321.221893 483.164886,318.089020 
	C485.789612,318.975159 485.372742,320.649170 484.528076,322.142303 
	C481.370605,327.723724 477.434509,332.654449 471.712158,335.805603 
	C469.370514,337.095123 466.719604,338.231873 464.217773,336.237640 
	C461.892822,334.384460 461.705719,331.633392 462.035370,328.914917 
	C462.554016,324.637787 463.209686,320.377289 463.971436,314.937988 
	C459.367828,320.105164 455.692871,324.641205 451.360260,328.546173 
	C447.996033,331.578278 444.472870,334.349487 440.281250,336.126862 
	C433.828064,338.863159 429.765198,336.281342 429.634430,329.290039 
	C429.450195,319.441040 431.357117,309.762482 432.244080,300.000488 
	C432.632385,295.727051 433.000641,291.511749 432.384399,286.992310 
	C426.402374,287.534546 425.301514,293.046387 421.716522,296.109100 
	C419.622040,293.658997 420.758667,291.590027 422.032135,289.784302 
	C425.038696,285.521301 428.747498,281.915192 433.308594,279.335114 
	C438.955170,276.141052 443.456207,278.609344 443.172577,285.206726 
	C442.844971,292.828247 441.643188,300.411316 440.846558,308.013763 
	C440.326996,312.972076 439.598450,317.926636 439.432861,322.898529 
	C439.278778,327.523926 441.508362,328.768555 445.859253,326.926605 
	C449.498138,325.386108 452.097992,322.552185 454.626801,319.658081 
	C462.441864,310.714111 466.718994,300.326233 467.798584,288.480713 
	C468.079193,285.401672 467.495178,281.564331 471.813324,279.739288 
z"/>
<path fill="#e0ffff" opacity="1.000000" stroke="none" 
	d="
M222.463287,279.637177 
	C226.307449,286.917480 223.612152,293.981445 222.911713,300.963928 
	C222.133331,308.723267 220.869278,316.434357 219.788040,324.162445 
	C219.572693,325.701660 219.356354,327.370850 220.891525,328.196472 
	C222.524933,329.074951 223.783539,327.715546 224.725861,326.631561 
	C226.862717,324.173492 228.815445,321.555328 230.957901,318.857635 
	C233.845444,320.914520 232.605072,322.990173 231.497269,324.667969 
	C228.333069,329.460175 224.216919,333.361267 219.107056,336.009338 
	C213.711853,338.805298 210.012970,336.556976 209.867462,330.231628 
	C209.706467,323.232635 211.205887,316.356750 212.180710,309.453888 
	C212.994278,303.692719 214.028366,297.953705 213.976593,292.116180 
	C213.937622,287.722412 212.038818,286.365967 207.906723,287.795105 
	C204.038513,289.132965 201.030457,291.740906 198.336929,294.782043 
	C190.083252,304.101013 187.153656,315.340118 186.343857,327.395844 
	C185.891769,334.126495 184.143433,335.646820 175.961533,336.266357 
	C176.729492,329.469360 177.528519,322.788391 178.229111,316.097076 
	C179.093414,307.842438 179.914200,299.582703 180.656265,291.316406 
	C180.782196,289.913605 181.100571,288.091644 179.210266,287.480804 
	C177.551727,286.944855 176.308060,288.080444 175.337448,289.215393 
	C173.436554,291.438171 171.677460,293.782257 169.827377,296.116852 
	C167.064285,293.886810 168.376862,291.905426 169.549561,290.143890 
	C172.446518,285.792267 176.190521,282.241455 180.643890,279.517456 
	C182.932877,278.117340 185.423782,276.902832 188.108124,278.697235 
	C190.812210,280.504883 191.225952,283.346344 191.026840,286.220978 
	C190.741638,290.338501 190.165726,294.435883 189.583679,299.725800 
	C194.148666,294.186493 198.079987,289.526764 202.715576,285.554443 
	C206.413040,282.386017 210.359253,279.692963 215.111053,278.301819 
	C217.673981,277.551544 220.025208,277.554718 222.463287,279.637177 
z"/>
<path fill="#e0ffff" opacity="1.000000" stroke="none" 
	d="
M292.890320,281.441650 
	C294.885956,291.247711 291.804901,300.288269 290.851349,309.495209 
	C290.211029,315.677490 288.335999,321.802917 289.773132,328.398590 
	C295.723083,327.637115 296.627960,321.694855 300.342773,319.021576 
	C303.205902,320.545868 301.926544,322.477203 301.042175,324.151764 
	C298.471191,329.020264 294.360443,332.410004 289.772949,335.232727 
	C287.356781,336.719421 284.731720,338.271942 281.872833,336.390961 
	C279.166840,334.610565 278.864868,331.572205 279.092651,328.778625 
	C279.578522,322.819366 280.419739,316.886902 281.198486,310.954346 
	C281.933685,305.353699 282.863220,299.777435 283.527466,294.169128 
	C283.796600,291.896637 284.173309,289.251373 281.725342,287.841187 
	C279.474884,286.544769 277.081085,287.370331 275.094055,288.657379 
	C265.338013,294.976715 259.727539,304.153015 257.333313,315.355286 
	C256.501587,319.246735 255.663483,323.257416 255.741028,327.195679 
	C255.872818,333.886230 251.623917,335.463776 246.122940,336.676086 
	C245.184189,333.413361 245.784317,330.367554 246.114548,327.313782 
	C247.365295,315.747284 248.635086,304.182129 249.743179,292.601685 
	C249.915405,290.801605 250.729752,288.180359 248.097382,287.465179 
	C245.844894,286.853241 244.694855,289.081604 243.313141,290.473083 
	C241.638733,292.159302 241.371841,295.094238 238.658768,295.992401 
	C236.703232,294.015808 237.478455,292.112091 238.581787,290.445496 
	C241.753128,285.655182 245.770599,281.644775 250.876129,278.974670 
	C255.970490,276.310455 259.744568,278.524506 260.135986,284.385803 
	C260.299683,286.836914 259.693909,289.335144 259.491333,291.816284 
	C259.288940,294.294922 259.153259,296.778961 258.948792,299.855408 
	C263.863068,293.353577 268.922760,287.557739 275.242889,283.025635 
	C277.962616,281.075378 280.774109,279.345154 284.026550,278.371796 
	C287.578766,277.308838 290.619995,277.604919 292.890320,281.441650 
z"/>
<path fill="#e0ffff" opacity="1.000000" stroke="none" 
	d="
M810.928345,278.831116 
	C814.679016,282.143799 814.488159,286.176849 813.938416,290.167725 
	C812.533630,300.365570 810.933472,310.536438 809.514343,320.732361 
	C809.177979,323.149384 808.900574,325.654785 810.022339,328.265015 
	C816.269531,328.251434 816.736633,321.443817 820.898804,318.997375 
	C822.994873,321.034241 822.133301,322.838196 821.101929,324.548920 
	C817.914795,329.835266 813.410950,333.734283 807.852966,336.290436 
	C803.137451,338.459076 800.046875,336.501343 799.693481,331.279297 
	C799.126404,322.900391 801.078430,314.749542 802.118835,306.517670 
	C802.721863,301.746246 803.850708,297.028198 803.671814,292.177277 
	C803.505798,287.677155 801.473755,286.323425 797.129517,287.815979 
	C794.731079,288.640015 792.747070,290.115784 790.886475,291.838013 
	C781.159241,300.841675 776.942383,312.210480 776.250305,325.192230 
	C775.803955,333.565582 774.456787,335.005981 766.626526,336.250122 
	C765.095276,334.540314 765.796448,332.503967 766.011353,330.612427 
	C767.454285,317.911743 768.989014,305.221497 770.436646,292.521332 
	C770.663208,290.533478 770.528809,288.533936 768.656250,286.930847 
	C763.524170,287.696411 762.838867,293.295898 759.387512,295.888947 
	C756.787415,294.246979 757.743042,292.284058 758.789062,290.641083 
	C761.967957,285.647705 766.105408,281.538055 771.393799,278.835968 
	C776.269348,276.344788 779.840088,278.644684 780.323669,284.165009 
	C780.733643,288.844849 779.362366,293.396484 779.320618,298.447693 
	C781.301331,297.813507 781.924622,296.226257 782.901672,295.057465 
	C788.063416,288.882782 793.737305,283.296906 801.068604,279.718262 
	C804.062500,278.256866 807.156372,276.814758 810.928345,278.831116 
z"/>
<path fill="#e0ffff" opacity="1.000000" stroke="none" 
	d="
M498.917725,316.231354 
	C499.885162,307.858459 500.839874,299.939484 501.607819,292.002411 
	C501.771759,290.308167 502.401947,287.924530 500.191559,287.150970 
	C497.950500,286.366669 496.676636,288.441467 495.284973,289.849182 
	C493.465759,291.689301 493.192108,294.790375 490.468719,295.919983 
	C487.984375,294.209076 489.126648,292.257111 490.128235,290.613525 
	C493.320892,285.374451 497.713318,281.301971 503.256989,278.694214 
	C507.879395,276.519806 511.206024,278.607880 511.396851,283.762848 
	C511.586853,288.897552 511.448822,294.049377 510.180634,300.056091 
	C516.016785,292.934845 521.242432,286.473663 528.346558,282.053833 
	C532.516541,279.459473 537.034851,275.729675 542.081482,278.895447 
	C547.218140,282.117706 545.511841,287.908295 544.957581,292.697876 
	C543.792725,302.763641 542.084167,312.765961 540.651062,322.801758 
	C540.376953,324.721039 539.526489,327.182129 541.789978,328.193848 
	C543.980652,329.173035 545.414917,327.065948 546.661682,325.559967 
	C548.421570,323.434387 550.004578,321.162384 551.822571,318.740631 
	C554.506226,320.981079 553.403748,322.955872 552.265808,324.716797 
	C549.420654,329.119690 545.652100,332.664032 541.194092,335.367401 
	C534.891357,339.189453 530.708984,336.923737 530.790405,329.570862 
	C530.895630,320.070984 533.063904,310.783142 534.205994,301.387177 
	C534.606384,298.093414 534.728699,294.758575 534.832214,291.437958 
	C534.947021,287.754425 532.762878,286.762573 529.597168,287.534790 
	C526.979675,288.173309 524.609741,289.531708 522.646545,291.347931 
	C514.804993,298.602509 509.922821,307.489258 508.356079,318.107697 
	C507.943634,320.902863 507.583405,323.712616 507.367340,326.528564 
	C506.797363,333.957184 505.438446,335.366272 496.990021,336.345215 
	C497.614044,329.705292 498.226166,323.192047 498.917725,316.231354 
z"/>
<path fill="#e0ffff" opacity="1.000000" stroke="none" 
	d="
M697.475342,278.926758 
	C703.137085,279.211914 703.775391,281.737061 702.851624,286.592682 
	C700.616516,298.341278 699.088318,310.227020 697.416077,322.077362 
	C697.151978,323.948975 696.679932,326.048279 698.228333,328.058716 
	C704.091309,327.348694 704.728638,321.132904 708.208252,318.087219 
	C710.802856,319.031342 710.295349,320.701599 709.437317,322.179657 
	C706.223328,327.715607 702.321655,332.677765 696.623291,335.867401 
	C694.425964,337.097351 691.934814,338.077209 689.540955,336.422668 
	C687.068726,334.713928 686.714417,331.966309 686.995422,329.252228 
	C687.455811,324.805511 688.151306,320.383179 688.903320,314.793243 
	C683.793518,321.646667 679.154419,327.473816 673.109680,331.899078 
	C668.532532,335.250000 663.670044,339.285126 657.699646,336.244507 
	C652.072144,333.378540 652.739624,327.378418 652.662476,322.041687 
	C652.357666,300.966705 670.749695,276.340942 697.475342,278.926758 
M692.574341,290.681763 
	C692.764832,288.016449 690.725220,287.404358 688.847839,286.741943 
	C681.368896,284.103210 675.006287,286.026337 670.590759,292.668549 
	C664.567749,301.728607 662.660400,311.916107 663.455200,322.613739 
	C663.769531,326.844116 666.491760,328.250702 670.437317,326.777557 
	C672.986389,325.825775 675.008484,324.119598 676.991394,322.341553 
	C686.204773,314.079895 690.948364,303.575439 692.574341,290.681763 
z"/>
<path fill="#e0ffff" opacity="1.000000" stroke="none" 
	d="
M850.655273,422.330719 
	C843.311646,436.812622 831.086060,439.486969 818.249878,428.764069 
	C818.249878,435.997314 818.273132,442.498749 818.235657,448.999847 
	C818.224426,450.958862 818.540039,453.240967 815.770569,453.724945 
	C812.585327,454.281586 810.028259,453.793671 810.035522,449.695862 
	C810.071045,429.546906 810.080200,409.397858 810.147949,389.249054 
	C810.155457,387.020538 810.452454,384.967896 813.546753,384.740509 
	C817.722412,384.433746 817.965149,387.309326 818.373108,390.746521 
	C820.600098,388.769104 822.346191,386.800323 824.697754,385.596649 
	C832.818054,381.440186 842.893677,383.893860 848.013611,391.872833 
	C854.074463,401.317932 854.743958,411.491699 850.655273,422.330719 
M818.971680,402.637360 
	C817.657471,408.965088 817.725952,415.200867 820.789673,421.048584 
	C823.109680,425.476837 826.709351,428.098389 831.973999,427.995209 
	C837.281738,427.891144 840.509277,424.952606 842.744507,420.469330 
	C845.231812,415.480347 845.136719,410.160248 844.622803,404.864349 
	C843.872192,397.129242 839.259827,391.766144 833.173889,391.105164 
	C826.422058,390.371918 822.131104,393.673401 818.971680,402.637360 
z"/>
<path fill="#e0ffff" opacity="1.000000" stroke="none" 
	d="
M453.674408,366.786621 
	C468.932495,369.004089 476.731628,380.180054 472.183777,392.807739 
	C469.592743,400.002014 464.447693,404.205109 456.834930,405.396027 
	C451.203827,406.276978 445.542450,406.017548 439.894928,405.927856 
	C436.460907,405.873322 435.147491,407.209534 435.237061,410.655243 
	C435.401245,416.974060 435.202789,423.301483 435.273926,429.623932 
	C435.306824,432.550507 434.613464,434.348206 431.137909,434.352203 
	C427.756592,434.356079 426.839020,432.729492 426.846893,429.731567 
	C426.897461,410.428436 426.942657,391.124878 426.853912,371.822083 
	C426.835846,367.901672 428.422272,366.577942 432.248657,366.697937 
	C439.231110,366.916840 446.225006,366.769257 453.674408,366.786621 
M440.762390,398.669006 
	C445.074493,398.656921 449.400970,398.864227 453.695435,398.582764 
	C460.625275,398.128540 465.084320,392.960083 464.977325,385.928925 
	C464.872620,379.049408 460.514191,374.562622 453.403168,374.289185 
	C448.765717,374.110840 444.111603,374.361969 439.474548,374.178070 
	C436.115662,374.044800 435.159088,375.584351 435.245941,378.674591 
	C435.390381,383.811981 435.426605,388.962311 435.224548,394.096039 
	C435.088226,397.558929 436.398865,399.066467 440.762390,398.669006 
z"/>
<path fill="#e0ffff" opacity="1.000000" stroke="none" 
	d="
M789.474609,430.054871 
	C787.856079,426.701141 786.759216,429.240173 785.770630,430.120758 
	C780.988464,434.380798 775.382874,435.862366 769.130188,435.273682 
	C762.958862,434.692566 758.503174,430.875580 757.082397,425.010956 
	C755.713867,419.361877 758.143799,413.683075 763.309448,410.448639 
	C767.947144,407.544800 773.330994,407.024628 778.466919,405.730988 
	C785.667175,403.917389 788.283569,401.573547 787.675171,397.306488 
	C787.081543,393.144104 781.981201,390.587524 775.559631,391.102570 
	C771.572632,391.422333 768.494629,393.168457 766.806152,396.778107 
	C765.227844,400.152283 762.334045,399.831390 760.058289,398.790466 
	C757.376648,397.563965 758.966492,395.022400 759.807861,393.150574 
	C762.867920,386.343201 771.903687,382.466461 781.212830,383.845825 
	C789.691528,385.102173 794.962463,389.665710 795.676819,397.852783 
	C796.383057,405.946808 795.985596,414.135529 796.124756,422.281830 
	C796.157959,424.223846 795.718140,426.577240 798.070251,427.498199 
	C800.971558,428.634247 800.684387,430.960968 799.897095,432.852173 
	C798.905884,435.232880 796.485107,435.081116 794.284729,434.514893 
	C792.024170,433.933167 790.593811,432.373352 789.474609,430.054871 
M785.035522,422.411865 
	C788.839294,418.584045 787.915344,413.975189 787.412598,408.982239 
	C784.640259,410.011627 782.219116,411.004791 779.736816,411.809052 
	C776.424500,412.882233 772.979004,413.590027 769.747681,414.855560 
	C766.027649,416.312469 764.445129,419.269562 765.318237,423.271271 
	C766.159851,427.128448 769.117188,427.970734 772.504639,428.034698 
	C777.256836,428.124420 781.256287,426.388458 785.035522,422.411865 
z"/>
<path fill="#e0ffff" opacity="1.000000" stroke="none" 
	d="
M897.175903,433.962769 
	C894.950256,432.002563 895.722961,429.715790 895.629456,427.626923 
	C895.220581,418.487732 896.360962,409.311676 894.960144,400.192474 
	C894.235229,395.472839 892.055969,392.062958 887.000183,391.238403 
	C881.741272,390.380676 877.210266,392.425171 874.669556,396.858765 
	C873.072205,399.646210 872.261963,402.650391 872.289551,405.919830 
	C872.355713,413.750244 872.279480,421.581757 872.304871,429.412689 
	C872.313538,432.095276 872.235596,434.321198 868.479553,434.366089 
	C864.843079,434.409546 864.521973,432.542877 864.534546,429.655121 
	C864.619629,410.161255 864.610779,390.666901 864.586365,371.172760 
	C864.583191,368.660309 864.541016,366.603699 868.090088,366.591003 
	C871.507263,366.578796 872.373047,368.135345 872.317322,371.166992 
	C872.207336,377.153992 872.284912,383.144470 872.284912,390.032104 
	C875.874268,387.184387 878.944641,384.713776 882.854370,383.912994 
	C893.596375,381.712708 902.734497,388.811401 903.191772,400.278900 
	C903.589783,410.260101 903.203857,420.270386 903.327515,430.265778 
	C903.382812,434.738892 900.592224,434.431885 897.175903,433.962769 
z"/>
<path fill="#e0ffff" opacity="1.000000" stroke="none" 
	d="
M721.700256,322.062378 
	C722.607605,310.371094 724.627502,299.245850 724.943176,287.916107 
	C721.422791,286.421570 717.715881,288.178589 714.044434,286.287933 
	C716.481689,282.822937 718.301453,279.163300 723.008301,279.252838 
	C726.014038,279.310028 726.499573,277.740814 726.749146,275.235077 
	C727.484741,267.849182 728.136902,267.331512 736.130249,266.428925 
	C738.336792,268.850861 736.372925,271.491913 736.258667,273.966553 
	C736.092163,277.574371 737.172485,279.182861 740.988464,279.060883 
	C747.079590,278.866180 753.181458,279.008820 760.505493,279.008820 
	C757.269531,284.031281 754.845337,287.513397 749.581177,287.270691 
	C748.584167,287.224670 747.583008,287.273224 746.583740,287.275604 
	C735.393433,287.302094 735.193359,287.274597 733.727356,297.993683 
	C732.625427,306.051453 732.080811,314.187469 731.373718,322.296112 
	C731.133362,325.052216 731.461731,327.904572 734.342712,329.133728 
	C737.306458,330.398224 739.339783,328.057373 741.309387,326.355499 
	C742.660400,325.188110 743.707886,323.669373 744.943359,322.247467 
	C747.856323,324.301453 746.672485,326.150177 745.567139,327.683960 
	C742.357971,332.136719 738.053528,335.274384 732.827820,336.880402 
	C728.077026,338.340454 724.066711,335.876984 722.346191,330.949280 
	C721.381653,328.186523 721.765869,325.348358 721.700256,322.062378 
z"/>
<path fill="#e0ffff" opacity="1.000000" stroke="none" 
	d="
M483.648865,427.886047 
	C483.654144,408.913208 483.634064,390.425476 483.699829,371.938019 
	C483.707458,369.794983 482.905975,366.959015 486.581635,366.688232 
	C489.424377,366.478760 491.454254,366.957886 491.366852,370.578461 
	C491.215424,376.851135 491.324829,383.130157 491.324829,390.285492 
	C495.928467,386.319611 500.123352,383.592102 505.618622,383.653046 
	C515.229370,383.759644 521.968933,390.000275 522.251343,399.903870 
	C522.536133,409.889252 522.302490,419.888763 522.362061,429.881683 
	C522.378052,432.566406 521.829102,434.339203 518.546326,434.336884 
	C515.332275,434.334625 514.643250,432.701965 514.660706,429.949707 
	C514.716797,421.122742 514.828186,412.290863 514.604065,403.468872 
	C514.365845,394.090149 509.163513,389.556824 501.102203,391.285400 
	C495.423584,392.503052 491.513031,398.221344 491.374054,405.923920 
	C491.238861,413.416565 491.373718,420.913727 491.305695,428.408173 
	C491.281342,431.091827 492.151093,434.338409 487.496948,434.310791 
	C482.896088,434.283447 483.795746,431.076477 483.648865,427.886047 
z"/>
<path fill="#e0ffff" opacity="1.000000" stroke="none" 
	d="
M655.787048,391.301147 
	C662.108093,400.106140 662.649353,409.558746 660.072327,419.242126 
	C657.396851,429.295532 649.550476,435.233276 639.751892,435.341461 
	C629.193176,435.458008 621.919067,430.136841 618.565308,419.804169 
	C616.456726,413.307922 616.236206,406.778320 618.190247,400.183960 
	C623.400818,382.600281 642.778320,377.836792 655.787048,391.301147 
M650.709534,397.916077 
	C647.625366,392.579346 643.013306,390.312561 636.926514,391.190460 
	C630.843750,392.067780 627.828186,396.280762 626.208618,401.660278 
	C624.648865,406.841034 624.606995,412.161255 626.200806,417.347168 
	C628.501038,424.831329 633.032715,428.238617 639.884644,427.967926 
	C646.205078,427.718201 650.884949,423.207611 652.655579,416.020905 
	C654.144165,409.979095 653.731506,404.198456 650.709534,397.916077 
z"/>
<path fill="#e0ffff" opacity="1.000000" stroke="none" 
	d="
M559.431274,435.134033 
	C539.159546,437.757904 531.520020,419.585999 533.255615,406.247467 
	C533.511841,404.278290 533.736511,402.279175 534.269348,400.376038 
	C537.413879,389.143433 546.404541,382.791473 557.674133,383.737000 
	C568.086365,384.610565 576.352051,393.459930 577.234741,404.943909 
	C577.539185,408.904968 577.824341,412.955963 576.895935,416.864716 
	C574.696594,426.124603 569.549683,432.750763 559.431274,435.134033 
M567.770691,399.873901 
	C564.313293,392.984344 560.277954,390.460022 553.754333,391.105865 
	C547.842041,391.691132 543.984558,395.308350 542.127441,402.421906 
	C540.485840,408.710022 540.697021,414.972076 543.692993,420.863068 
	C546.065125,425.527588 549.865540,428.085541 555.301147,428.019928 
	C560.652222,427.955322 564.545654,425.631134 566.933655,420.883362 
	C570.244019,414.301727 570.528076,407.517456 567.770691,399.873901 
z"/>
<path fill="#e0ffff" opacity="1.000000" stroke="none" 
	d="
M940.262085,407.366974 
	C942.370972,401.339539 944.311584,395.668274 946.306213,390.016083 
	C948.346741,384.234070 949.129028,383.872742 955.545532,385.512329 
	C956.178345,386.704010 955.597778,387.815186 955.219604,388.877991 
	C948.745483,407.073547 942.286987,425.274963 935.712646,443.434418 
	C933.731262,448.907562 930.381897,453.031921 923.995667,453.593597 
	C918.428833,454.083191 917.327942,452.888794 918.264404,447.155182 
	C928.101318,445.346710 932.086609,438.232117 928.565613,428.666687 
	C923.963684,416.164948 919.310425,403.682068 914.700500,391.183289 
	C914.024902,389.351685 913.085693,387.544983 913.482361,385.522430 
	C920.067383,383.909393 920.716431,384.232666 922.851074,390.159790 
	C926.620422,400.625580 930.377747,411.095734 934.665955,423.027222 
	C936.820557,416.982086 938.469055,412.356812 940.262085,407.366974 
z"/>
<path fill="#e0ffff" opacity="1.000000" stroke="none" 
	d="
M131.865295,294.947388 
	C134.993271,290.155884 138.403275,286.092987 142.566147,282.679199 
	C145.599274,280.191833 149.041565,278.549835 152.876358,277.901886 
	C158.559830,276.941467 162.210693,280.093811 162.336914,285.884491 
	C162.494141,293.098877 158.898788,298.628387 154.090942,303.454620 
	C149.334641,308.229126 143.755890,311.906982 137.287872,313.933350 
	C134.102020,314.931458 133.088486,316.246521 134.163406,319.697449 
	C137.135330,329.238434 146.389236,331.487122 154.117813,324.158386 
	C156.481049,321.917419 158.322296,319.126007 160.518417,316.445282 
	C163.320908,318.384552 162.204483,320.373260 160.992920,322.119049 
	C157.242142,327.523834 152.704849,332.154694 146.713776,335.063080 
	C135.068893,340.716156 124.568192,334.567108 123.750229,321.576538 
	C123.138748,311.865234 126.560539,303.285583 131.865295,294.947388 
M146.799011,304.410919 
	C150.690247,301.852661 153.720169,298.749695 153.878616,293.698212 
	C154.058212,287.973358 150.106964,285.179779 144.719528,287.343994 
	C140.929062,288.866669 138.687592,291.990387 137.133301,295.525360 
	C135.577332,299.064056 132.258514,303.468384 135.213028,306.514069 
	C138.206589,309.600006 142.573013,306.327515 146.799011,304.410919 
z"/>
<path fill="#e0ffff" opacity="1.000000" stroke="none" 
	d="
M576.938599,282.838287 
	C579.854065,280.483215 582.803223,278.960571 586.081787,278.146820 
	C593.134338,276.396362 598.087219,280.895386 596.859009,288.099762 
	C595.047852,298.723633 587.757141,305.149353 579.195923,310.495941 
	C577.788879,311.374695 576.275879,312.121307 574.736938,312.744019 
	C571.082703,314.222595 566.618042,314.835205 568.930115,320.814117 
	C571.095947,326.414978 575.536804,329.488556 580.822937,328.355865 
	C586.234924,327.196228 589.972290,323.827606 592.729736,319.181030 
	C593.299927,318.220123 593.749451,317.066284 595.232117,316.654572 
	C597.674805,318.416046 596.557373,320.311951 595.425659,322.151611 
	C592.390198,327.085907 588.202698,330.898285 583.295654,333.838684 
	C577.801147,337.131073 571.885681,339.214996 565.898132,335.326111 
	C559.709229,331.306427 557.716248,325.035065 558.253052,317.942841 
	C559.332581,303.678986 566.322205,292.473022 576.938599,282.838287 
M587.827026,289.846344 
	C584.014526,285.868500 580.731995,285.478607 576.651245,288.824005 
	C571.778198,292.818848 569.833923,298.451630 568.572083,304.357849 
	C568.119263,306.477356 569.449219,307.510498 571.371460,307.530304 
	C581.119507,307.630768 591.334595,298.027313 587.827026,289.846344 
z"/>
<path fill="#e0ffff" opacity="1.000000" stroke="none" 
	d="
M833.459473,297.549469 
	C836.331787,292.597137 839.556763,288.385254 843.466980,284.711884 
	C845.660278,282.651367 847.993835,280.768372 850.772095,279.556274 
	C854.849854,277.777252 859.219299,276.267548 862.980103,279.641235 
	C866.892212,283.150635 865.951782,287.984100 864.450867,292.215759 
	C860.808960,302.483124 852.736267,308.480927 843.237061,312.828461 
	C839.773621,314.413574 835.161194,314.713745 837.521912,320.731323 
	C839.713013,326.316284 844.018982,329.326843 849.351135,328.330322 
	C854.266174,327.411835 857.639648,324.393341 860.549194,320.581482 
	C861.586853,319.222046 861.886475,317.063965 864.366394,316.798279 
	C866.309753,318.846069 865.152039,320.790466 863.907898,322.492615 
	C860.240723,327.509949 855.917664,331.904968 850.339233,334.778259 
	C838.419312,340.917877 827.472656,334.593536 826.837769,321.095123 
	C826.444092,312.723358 829.082458,305.044403 833.459473,297.549469 
M837.702332,302.121185 
	C837.293640,304.586731 836.398621,307.280640 840.387451,307.603790 
	C845.663391,308.031219 854.422546,302.526245 856.371094,297.444946 
	C857.677002,294.039612 858.336914,290.449860 854.937256,287.948578 
	C851.252502,285.237579 847.637939,286.567719 844.596008,289.380646 
	C841.092957,292.619995 839.154968,296.820648 837.702332,302.121185 
z"/>
<path fill="#e0ffff" opacity="1.000000" stroke="none" 
	d="
M609.954834,289.088165 
	C607.801880,291.319336 607.230957,294.375305 604.817932,295.987762 
	C602.219666,294.183929 603.224548,292.240082 604.233521,290.564606 
	C607.404053,285.299591 611.862305,281.322327 617.375305,278.678345 
	C621.555176,276.673706 624.632446,278.218811 625.503662,282.782898 
	C626.544800,288.237488 625.062317,293.638580 624.614136,299.347473 
	C632.912048,289.322540 638.185608,274.775970 655.841125,278.862244 
	C653.505432,285.776337 649.697083,288.583191 643.778503,288.530060 
	C640.042664,288.496521 637.162415,290.449829 634.667053,293.062134 
	C625.426575,302.735474 622.031067,314.652527 621.278687,327.627411 
	C620.885620,334.404785 619.231140,335.837708 611.173523,336.252502 
	C612.188110,326.643433 613.214783,317.137970 614.187073,307.626923 
	C614.743835,302.180725 615.264465,296.729553 615.684692,291.271637 
	C615.794250,289.848938 616.155579,288.059265 614.510986,287.228241 
	C612.659485,286.292755 611.427551,287.731232 609.954834,289.088165 
z"/>
<path fill="#e0ffff" opacity="1.000000" stroke="none" 
	d="
M603.187622,392.061890 
	C600.204346,392.035522 599.236206,393.378845 599.250854,395.825439 
	C599.303772,404.652313 599.306274,413.479645 599.292603,422.306732 
	C599.285767,426.683807 601.806274,428.147888 605.734924,427.998474 
	C607.987793,427.912842 610.181274,427.670197 610.241821,430.996002 
	C610.296936,434.027069 608.675781,435.014465 605.954651,435.305786 
	C596.830139,436.282654 591.841125,432.604889 591.265015,423.373352 
	C590.736877,414.910614 590.995117,406.394989 591.027649,397.903107 
	C591.040222,394.624512 590.846924,391.842255 586.481812,391.871796 
	C584.421204,391.885773 583.670776,390.460175 583.711060,388.499603 
	C583.747681,386.719208 583.947388,384.822632 586.176758,384.925232 
	C590.906921,385.142883 591.173401,382.231171 590.997314,378.753326 
	C590.930237,377.428375 591.042664,376.090668 591.129211,374.762421 
	C591.297485,372.177582 592.896118,371.519989 595.228271,371.577637 
	C597.504761,371.633942 599.194580,372.144928 599.200562,374.855408 
	C599.204590,376.687042 599.378357,378.528900 599.238953,380.347992 
	C598.993469,383.552460 600.283630,384.913818 603.551208,384.802124 
	C606.096619,384.715149 609.196411,384.113098 609.248718,388.357544 
	C609.301636,392.650116 606.136169,391.798981 603.187622,392.061890 
z"/>
<path fill="#e0ffff" opacity="1.000000" stroke="none" 
	d="
M734.301270,428.848145 
	C734.494385,432.379547 733.898926,434.520294 730.018066,434.309448 
	C726.080017,434.095520 726.636414,431.383789 726.630005,428.964539 
	C726.596191,416.137848 726.584229,403.310913 726.638489,390.484344 
	C726.649109,387.972229 725.830811,384.905365 730.139893,384.744080 
	C734.168518,384.593323 734.141541,387.346436 734.375000,390.735596 
	C737.441589,386.864349 740.941650,384.441864 745.390991,384.036072 
	C747.639099,383.830994 750.270264,383.683319 750.465881,387.203522 
	C750.636292,390.270538 750.062805,392.075409 746.224243,392.210022 
	C738.847534,392.468658 734.576965,397.173889 734.380737,404.879456 
	C734.181458,412.703979 734.315002,420.536957 734.301270,428.848145 
z"/>
</svg>